<svg width="231" height="120" viewBox="0 0 231 120" fill="none" xmlns="http://www.w3.org/2000/svg">
<mask id="mask0_1008_984" style="mask-type:alpha" maskUnits="userSpaceOnUse" x="0" y="0" width="231" height="120">
<rect width="231" height="120" fill="#D9D9D9"/>
</mask>
<g mask="url(#mask0_1008_984)">
<g clip-path="url(#clip0_1008_984)">
<path d="M2.53845 50.6418C14.5905 126.988 90.4959 123.004 151.053 115.686C176.242 112.627 202.79 104.666 213.556 78.9722C225.009 51.7944 231.979 13.4035 229.358 -16.3923C226.792 -44.6174 187.069 -53.2223 166.893 -57.0675C147.354 -60.8605 129.909 -62.4369 109.116 -62.5167C80.124 -62.6778 44.987 -60.6462 22.9784 -43.2643C1.49761 -26.2205 -1.50262 25.3494 2.4912 50.6492L2.53845 50.6418Z" fill="black"/>
</g>
<g clip-path="url(#clip1_1008_984)">
<path d="M65.2352 33.3941C66.738 33.1446 68.8132 32.3563 69.5368 31.3661C71.1071 29.2233 70.316 21.1035 70.2007 19.0875C70.1331 17.923 69.2982 16.7387 68.5787 15.8792C67.3542 14.4255 65.6884 14.2513 64.619 14.2354C62.7903 14.1919 59.2521 14.3978 57.63 16.406C55.9086 18.5409 56.0716 22.0898 56.3817 24.6644C57.4949 34.0041 61.4823 34.0199 65.2352 33.398V33.3941Z" fill="white"/>
<path d="M91.7328 32.6471C94.2851 33.4115 97.6484 33.8908 100.3 33.4392C102.224 33.1144 103.218 31.1815 103.409 29.4269C103.767 26.1909 103.969 22.7291 103.576 19.5049C102.852 13.4607 95.5493 13.3775 91.2239 15.4173C90.4725 15.7659 89.8722 18.3998 89.7569 19.2435C89.4866 21.2596 89.4747 24.0203 89.3316 26.6503C89.2163 28.607 89.3991 31.9499 91.7328 32.6471Z" fill="white"/>
<path d="M129.334 33.6445C135.44 33.6445 136.065 27.3864 136.239 22.3402C136.311 20.241 136.017 17.9674 134.144 16.7554C132.161 15.4681 129.25 14.4027 126.893 14.2323C124.659 14.0739 123.498 17.2109 122.949 18.8111C122.413 20.3598 122.075 21.7659 121.812 23.4651C121.443 25.8337 121.168 28.733 122.254 30.757C123.319 32.7335 127.306 33.6445 129.33 33.6445H129.334Z" fill="white"/>
<path d="M164.63 32.7562C169.683 30.4233 167.576 21.5826 165.906 17.7327C164.638 14.8017 163.807 13.954 160.77 14.2867C156.599 14.7502 154.898 17.2455 154.162 18.4971C152.353 21.5985 153.594 27.0447 154.15 29.8173C154.997 34.0475 161.187 34.3406 164.626 32.7523L164.63 32.7562Z" fill="white"/>
<path d="M55.001 81.7254H61.1393V66.7336H70.0325L71.2928 61.1923H61.1393V49.381H74.02L75.3001 43.8438H55.001V81.7254Z" fill="white"/>
<path d="M138.744 58.3326V52.1972C138.744 46.7312 135.445 43.8438 129.207 43.8438H119.403V81.7254H125.542V66.6821H128.833L133.938 81.7254H140.255L134.582 65.676C137.345 64.357 138.744 61.8894 138.744 58.3286V58.3326ZM132.61 57.4414C132.61 60.1427 131.596 61.2002 128.996 61.2002H125.542V49.389H128.996C131.596 49.389 132.61 50.4425 132.61 53.1478V57.4453V57.4414Z" fill="white"/>
<path d="M165.907 63.9768L171.643 43.8438H165.35L160.58 61.1923H157.729V43.8438H151.591V81.7254H157.729V66.6741H160.607L165.684 81.7254H172.001L165.907 63.9768Z" fill="white"/>
<path d="M96.7293 43.3594H96.3119C90.0663 43.3594 86.7706 46.2468 86.7706 51.7128V73.8659C86.7706 79.3279 90.0703 82.2193 96.3119 82.2193H96.7293C102.975 82.2193 106.271 79.3319 106.271 73.8659V51.7128C106.271 46.2508 102.971 43.3594 96.7293 43.3594ZM100.136 72.7529C100.136 75.4542 99.1265 76.6781 96.5226 76.6781C93.9186 76.6781 92.9088 75.4542 92.9088 72.7529V52.8219C92.9088 50.1206 93.9186 48.8967 96.5226 48.8967C99.1265 48.8967 100.136 50.1206 100.136 52.8219V72.7529Z" fill="white"/>
</g>
</g>
<defs>
<clipPath id="clip0_1008_984">
<rect width="186.84" height="234.546" fill="white" transform="translate(218.735 -84) rotate(81.0293)"/>
</clipPath>
<clipPath id="clip1_1008_984">
<rect width="117" height="68" fill="white" transform="translate(55.001 14.2148)"/>
</clipPath>
</defs>
</svg>
